# xmcd CD database file
#
# Track frame offsets:
#	150
#	30856
#	55359
#	83444
#	105280
#	124211
#	147542
#	165460
#	189281
#	218702
#	233093
#	251256
#	275219
#	301188
#	322272
#
# Disc length: 4577 seconds
#
# Revision: 1
# Processed by: cddbd v1.5.2PL0 Copyright (c) Steve Scherf et al.
# Submitted via: CDex 1.51
#
DISCID=c511df0f
DTITLE=Meir Ariel - Hameytav cd2
DYEAR=2004
DGENRE=Israeli Rock
TTITLE0=Avarnu Et Paro Naavor Gam Et Ze
TTITLE1=Narkoman Tzibur
TTITLE2=Betzohorey Hayom
TTITLE3=Zirey Kayitz
TTITLE4=Lo Titpos Oti
TTITLE5=Kotzim Alef
TTITLE6=Mayim Metukim
TTITLE7=Shamati Sheat Nimtzet
TTITLE8=Tuk Tuk Tuk Al Daltey Marom
TTITLE9=Hikansi Kvar Laoto Venisa
TTITLE10=Lo Yachol Lehorid Mimech Et Haeynayim
TTITLE11=Achshav Lehitahev
TTITLE12=Shalal Rav
TTITLE13=Mode Ani
TTITLE14=Chatuna Meucheret
EXTD=YEAR: 2004
EXTT0=
EXTT1=
EXTT2=
EXTT3=
EXTT4=
EXTT5=
EXTT6=
EXTT7=
EXTT8=
EXTT9=
EXTT10=
EXTT11=
EXTT12=
EXTT13=
EXTT14=
PLAYORDER=
